<?xml version="1.0" encoding="utf-8"?>
<!-- Svg Vector Icons : http://www.onlinewebfonts.com/icon -->
<!DOCTYPE svg PUBLIC "-//W3C//DTD SVG 1.1//EN" "http://www.w3.org/Graphics/SVG/1.1/DTD/svg11.dtd">
<svg version="1.1" xmlns="http://www.w3.org/2000/svg" xmlns:xlink="http://www.w3.org/1999/xlink" x="0px" y="0px" viewBox="0 0 256 256" enable-background="new 0 0 256 256" xml:space="preserve">
<metadata> Svg Vector Icons : http://www.onlinewebfonts.com/icon </metadata>
<g><g><g><path stroke-width="2" fill-opacity="0" stroke="#000000"  d="M141.1,27.8v17.6h-11.9V10h13l7.1,13l8.2-13h11.9v35.4h-11.9V27.8l-8.2,13L141.1,27.8z M203.4,45.4h-28.3V10H187v23.8h16.4V45.4z M102.1,45.4V21.9H91.3V10h33.1v11.9H114v23.5H102.1z M64.5,33.8v11.6H52.6V10h11.9v11.9h10.5V10h11.9v35.4H74.9V33.8H64.5z M45.5,57.2h165L196.3,227l-68.2,19l-68.5-19L45.5,57.2z M178.8,111.6l2.3-20.1H74.9l5.9,62.5h73l-2.3,27.2l-23.5,5.7l-23.8-5.7l-1.1-17.8H82l3.7,34.2l42.5,11.9l42.5-11.9l5.6-64.8H101l-2.3-21.2L178.8,111.6L178.8,111.6z"/></g></g></g>
</svg>